<svg xmlns="http://www.w3.org/2000/svg" width="1235" height="365" viewBox="0 0 1235 365" role="img" aria-label="Bizon Soluciones Industriales">
<rect width="100%" height="100%" fill="#FF7500"/>
<path d="M1123.00,312.00 L1117.00,317.00 L1117.00,319.00 L1116.00,320.00 L1116.00,325.00 L1120.00,329.00 L1127.00,329.00 L1128.00,330.00 L1130.00,330.00 L1131.00,331.00 L1131.00,335.00 L1129.00,337.00 L1121.00,337.00 L1120.00,336.00 L1120.00,333.00 L1114.00,333.00 L1113.00,338.00 L1117.00,342.00 L1132.00,342.00 L1137.00,336.00 L1137.00,331.00 L1138.00,329.00 L1137.00,327.00 L1133.00,324.00 L1123.00,324.00 L1122.00,322.00 L1123.00,321.00 L1123.00,319.00 L1125.00,317.00 L1132.00,317.00 L1134.00,322.00 L1138.00,322.00 L1139.00,321.00 L1139.00,315.00 L1136.00,312.00 Z M1088.00,312.00 L1087.00,313.00 L1087.00,317.00 L1086.00,318.00 L1086.00,322.00 L1085.00,323.00 L1085.00,327.00 L1084.00,328.00 L1084.00,333.00 L1083.00,334.00 L1083.00,339.00 L1082.00,340.00 L1082.00,342.00 L1103.00,342.00 L1104.00,341.00 L1104.00,337.00 L1090.00,337.00 L1089.00,336.00 L1090.00,335.00 L1090.00,331.00 L1091.00,330.00 L1103.00,330.00 L1105.00,327.00 L1105.00,325.00 L1104.00,324.00 L1093.00,324.00 L1092.00,323.00 L1092.00,320.00 L1094.00,317.00 L1108.00,317.00 L1109.00,312.00 Z M1059.00,312.00 L1058.00,313.00 L1058.00,317.00 L1057.00,318.00 L1057.00,322.00 L1056.00,323.00 L1056.00,328.00 L1055.00,329.00 L1055.00,334.00 L1054.00,335.00 L1053.00,342.00 L1073.00,342.00 L1074.00,341.00 L1074.00,337.00 L1061.00,337.00 L1060.00,336.00 L1061.00,335.00 L1061.00,329.00 L1062.00,328.00 L1062.00,324.00 L1063.00,323.00 L1063.00,319.00 L1064.00,318.00 L1064.00,312.00 Z M1039.00,312.00 L1034.00,312.00 L1031.00,318.00 L1029.00,320.00 L1026.00,327.00 L1024.00,329.00 L1018.00,342.00 L1023.00,342.00 L1027.00,336.00 L1037.00,336.00 L1038.00,337.00 L1039.00,342.00 L1044.00,342.00 L1044.00,336.00 L1043.00,335.00 L1042.00,325.00 L1041.00,324.00 L1041.00,320.00 L1040.00,319.00 Z M1035.00,321.00 L1036.00,322.00 L1036.00,328.00 L1037.00,330.00 L1036.00,331.00 L1035.00,330.00 L1032.00,330.00 L1031.00,331.00 L1030.00,329.00 L1033.00,323.00 Z M1014.00,312.00 L1009.00,312.00 L1008.00,313.00 L1007.00,320.00 L1006.00,321.00 L1005.00,331.00 L1004.00,332.00 L1004.00,336.00 L1003.00,337.00 L1003.00,342.00 L1009.00,342.00 L1009.00,338.00 L1010.00,337.00 L1010.00,332.00 L1011.00,331.00 L1011.00,327.00 L1012.00,326.00 L1012.00,321.00 L1013.00,320.00 Z M975.00,312.00 L973.00,316.00 L973.00,320.00 L972.00,321.00 L972.00,326.00 L971.00,327.00 L971.00,331.00 L970.00,332.00 L969.00,342.00 L975.00,342.00 L976.00,333.00 L978.00,331.00 L982.00,331.00 L984.00,333.00 L987.00,342.00 L993.00,342.00 L992.00,336.00 L990.00,332.00 L995.00,327.00 L997.00,316.00 L993.00,312.00 Z M979.00,318.00 L980.00,317.00 L989.00,317.00 L990.00,318.00 L990.00,323.00 L988.00,326.00 L979.00,326.00 L978.00,325.00 Z M965.00,312.00 L942.00,312.00 L941.00,317.00 L948.00,317.00 L949.00,318.00 L949.00,323.00 L948.00,324.00 L948.00,328.00 L947.00,329.00 L947.00,334.00 L946.00,335.00 L945.00,342.00 L951.00,342.00 L952.00,341.00 L952.00,336.00 L953.00,335.00 L953.00,330.00 L954.00,329.00 L955.00,320.00 L957.00,317.00 L965.00,317.00 Z M916.00,312.00 L913.00,314.00 L910.00,318.00 L910.00,326.00 L916.00,330.00 L924.00,330.00 L925.00,331.00 L924.00,336.00 L923.00,337.00 L914.00,337.00 L913.00,336.00 L913.00,333.00 L908.00,333.00 L907.00,334.00 L907.00,339.00 L910.00,342.00 L925.00,342.00 L928.00,340.00 L930.00,337.00 L931.00,328.00 L926.00,324.00 L917.00,324.00 L916.00,323.00 L916.00,320.00 L918.00,317.00 L926.00,317.00 L927.00,318.00 L927.00,322.00 L932.00,322.00 L933.00,321.00 L933.00,316.00 L931.00,313.00 L929.00,312.00 Z M878.00,312.00 L877.00,313.00 L876.00,321.00 L875.00,322.00 L875.00,326.00 L874.00,327.00 L873.00,338.00 L877.00,342.00 L892.00,342.00 L898.00,335.00 L898.00,331.00 L899.00,330.00 L900.00,320.00 L901.00,319.00 L901.00,315.00 L902.00,313.00 L901.00,312.00 L896.00,312.00 L895.00,314.00 L894.00,324.00 L892.00,329.00 L892.00,334.00 L889.00,337.00 L881.00,337.00 L879.00,334.00 L880.00,333.00 L880.00,329.00 L881.00,328.00 L881.00,323.00 L882.00,322.00 L882.00,318.00 L883.00,317.00 L883.00,312.00 Z M844.00,312.00 L842.00,317.00 L842.00,322.00 L841.00,323.00 L841.00,327.00 L840.00,328.00 L838.00,342.00 L857.00,342.00 L863.00,337.00 L863.00,333.00 L864.00,332.00 L864.00,328.00 L865.00,327.00 L865.00,322.00 L866.00,321.00 L866.00,316.00 L862.00,312.00 Z M849.00,317.00 L858.00,317.00 L860.00,319.00 L859.00,321.00 L859.00,326.00 L858.00,327.00 L857.00,335.00 L855.00,337.00 L846.00,337.00 L845.00,336.00 L847.00,322.00 Z M808.00,312.00 L802.00,342.00 L808.00,342.00 L808.00,338.00 L809.00,337.00 L809.00,333.00 L810.00,332.00 L810.00,327.00 L812.00,323.00 L821.00,342.00 L827.00,342.00 L828.00,332.00 L829.00,331.00 L830.00,322.00 L832.00,317.00 L832.00,312.00 L827.00,312.00 L826.00,313.00 L824.00,328.00 L822.00,331.00 L813.00,312.00 Z M796.00,312.00 L791.00,312.00 L790.00,313.00 L790.00,317.00 L789.00,318.00 L789.00,322.00 L788.00,323.00 L788.00,327.00 L787.00,328.00 L787.00,333.00 L786.00,334.00 L785.00,342.00 L791.00,342.00 L791.00,340.00 L792.00,339.00 L792.00,334.00 L793.00,333.00 L793.00,328.00 L794.00,327.00 L794.00,323.00 L795.00,322.00 L795.00,318.00 L796.00,317.00 Z M745.00,312.00 L742.00,314.00 L739.00,318.00 L739.00,326.00 L742.00,329.00 L751.00,329.00 L754.00,331.00 L753.00,336.00 L752.00,337.00 L743.00,337.00 L742.00,336.00 L742.00,333.00 L737.00,333.00 L736.00,338.00 L739.00,342.00 L754.00,342.00 L759.00,338.00 L760.00,328.00 L756.00,324.00 L746.00,324.00 L745.00,323.00 L745.00,320.00 L747.00,317.00 L754.00,317.00 L756.00,319.00 L756.00,322.00 L761.00,322.00 L762.00,321.00 L762.00,316.00 L758.00,312.00 Z M711.00,312.00 L710.00,313.00 L710.00,317.00 L709.00,318.00 L709.00,322.00 L708.00,323.00 L708.00,327.00 L707.00,328.00 L705.00,342.00 L726.00,342.00 L727.00,341.00 L727.00,337.00 L713.00,337.00 L712.00,335.00 L714.00,330.00 L726.00,330.00 L728.00,326.00 L727.00,324.00 L716.00,324.00 L715.00,323.00 L715.00,319.00 L717.00,317.00 L731.00,317.00 L731.00,312.00 Z M675.00,312.00 L669.00,342.00 L675.00,342.00 L676.00,340.00 L676.00,336.00 L677.00,335.00 L678.00,324.00 L679.00,323.00 L685.00,334.00 L685.00,336.00 L688.00,342.00 L694.00,342.00 L695.00,340.00 L695.00,335.00 L696.00,334.00 L697.00,324.00 L698.00,323.00 L698.00,319.00 L699.00,318.00 L699.00,312.00 L694.00,312.00 L693.00,314.00 L693.00,318.00 L692.00,319.00 L692.00,323.00 L691.00,324.00 L691.00,328.00 L689.00,330.00 L685.00,323.00 L685.00,321.00 L680.00,312.00 Z M644.00,312.00 L638.00,317.00 L637.00,327.00 L636.00,328.00 L636.00,332.00 L635.00,333.00 L635.00,338.00 L639.00,342.00 L655.00,342.00 L660.00,337.00 L661.00,329.00 L662.00,328.00 L662.00,324.00 L663.00,323.00 L663.00,316.00 L659.00,312.00 Z M646.00,317.00 L655.00,317.00 L657.00,319.00 L656.00,326.00 L655.00,327.00 L655.00,332.00 L654.00,333.00 L654.00,335.00 L652.00,337.00 L642.00,337.00 L641.00,336.00 L644.00,319.00 Z M628.00,312.00 L623.00,312.00 L622.00,314.00 L621.00,324.00 L620.00,325.00 L620.00,329.00 L619.00,330.00 L619.00,334.00 L618.00,335.00 L617.00,342.00 L623.00,342.00 L623.00,340.00 L624.00,339.00 L624.00,334.00 L625.00,333.00 L625.00,329.00 L626.00,328.00 L626.00,324.00 L627.00,323.00 L627.00,319.00 L628.00,318.00 Z M594.00,312.00 L592.00,313.00 L587.00,319.00 L587.00,323.00 L586.00,324.00 L584.00,338.00 L588.00,342.00 L603.00,342.00 L607.00,339.00 L609.00,332.00 L603.00,332.00 L603.00,335.00 L601.00,337.00 L592.00,337.00 L591.00,336.00 L591.00,330.00 L592.00,329.00 L593.00,320.00 L596.00,317.00 L604.00,317.00 L606.00,319.00 L605.00,322.00 L611.00,322.00 L612.00,317.00 L608.00,312.00 Z M555.00,312.00 L553.00,316.00 L553.00,321.00 L552.00,322.00 L552.00,326.00 L551.00,327.00 L550.00,338.00 L554.00,342.00 L569.00,342.00 L574.00,338.00 L575.00,330.00 L576.00,329.00 L576.00,324.00 L577.00,323.00 L577.00,319.00 L578.00,318.00 L578.00,312.00 L573.00,312.00 L572.00,314.00 L571.00,323.00 L570.00,324.00 L570.00,328.00 L569.00,329.00 L569.00,334.00 L566.00,337.00 L558.00,337.00 L556.00,335.00 L557.00,328.00 L558.00,327.00 L559.00,317.00 L560.00,316.00 L560.00,312.00 Z M526.00,312.00 L520.00,342.00 L541.00,342.00 L542.00,337.00 L528.00,337.00 L527.00,336.00 L528.00,335.00 L528.00,331.00 L529.00,330.00 L530.00,320.00 L531.00,319.00 L531.00,315.00 L532.00,313.00 L531.00,312.00 Z M495.00,312.00 L492.00,314.00 L489.00,318.00 L486.00,338.00 L490.00,342.00 L506.00,342.00 L511.00,337.00 L515.00,317.00 L511.00,312.00 Z M497.00,317.00 L506.00,317.00 L508.00,319.00 L508.00,321.00 L507.00,322.00 L507.00,327.00 L506.00,328.00 L506.00,332.00 L505.00,333.00 L505.00,335.00 L503.00,337.00 L494.00,337.00 L492.00,335.00 L493.00,334.00 L493.00,330.00 L494.00,329.00 L495.00,319.00 Z M463.00,312.00 L457.00,317.00 L456.00,325.00 L460.00,329.00 L470.00,330.00 L471.00,331.00 L471.00,335.00 L469.00,337.00 L460.00,337.00 L459.00,336.00 L460.00,335.00 L460.00,333.00 L454.00,333.00 L453.00,338.00 L457.00,342.00 L472.00,342.00 L477.00,336.00 L478.00,329.00 L477.00,327.00 L473.00,324.00 L464.00,324.00 L463.00,323.00 L463.00,319.00 L465.00,317.00 L472.00,317.00 L474.00,322.00 L478.00,322.00 L480.00,319.00 L480.00,316.00 L476.00,312.00 Z M402.00,281.00 L1173.00,281.00 L1170.00,288.00 L1195.00,288.00 L1209.00,270.00 L406.00,270.00 Z M320.00,248.00 L294.00,248.00 L293.00,249.00 L293.00,254.00 L287.00,260.00 L287.00,261.00 L270.00,281.00 L253.00,304.00 L248.00,309.00 L242.00,318.00 L238.00,322.00 L230.00,334.00 L239.00,328.00 L273.00,299.00 L278.00,296.00 L302.00,275.00 L314.00,266.00 L318.00,262.00 L318.00,257.00 L319.00,256.00 L319.00,251.00 L320.00,250.00 Z M1061.00,109.00 L1026.00,246.00 L1070.00,246.00 L1087.00,179.00 L1091.00,170.00 L1136.00,246.00 L1179.00,246.00 L1214.00,109.00 L1169.00,110.00 L1151.00,184.00 L1106.00,109.00 Z M869.00,128.00 L869.00,132.00 L845.00,228.00 L861.00,246.00 L977.00,246.00 L1002.00,227.00 L1027.00,126.00 L1011.00,109.00 L895.00,109.00 Z M912.00,143.00 L914.00,142.00 L974.00,142.00 L975.00,143.00 L976.00,146.00 L975.00,147.00 L975.00,150.00 L974.00,151.00 L974.00,154.00 L973.00,155.00 L973.00,158.00 L972.00,159.00 L972.00,162.00 L970.00,167.00 L970.00,171.00 L969.00,172.00 L969.00,175.00 L968.00,176.00 L968.00,179.00 L967.00,180.00 L967.00,183.00 L966.00,184.00 L966.00,187.00 L965.00,188.00 L965.00,191.00 L964.00,192.00 L961.00,207.00 L960.00,208.00 L960.00,210.00 L956.00,213.00 L897.00,213.00 L894.00,210.00 L895.00,205.00 L896.00,204.00 L896.00,201.00 L897.00,200.00 L897.00,197.00 L898.00,196.00 L898.00,193.00 L899.00,192.00 L899.00,189.00 L900.00,188.00 L900.00,185.00 L901.00,184.00 L901.00,181.00 L902.00,180.00 L902.00,177.00 L904.00,173.00 L907.00,158.00 L908.00,157.00 L909.00,149.00 Z M696.00,109.00 L688.00,142.00 L770.00,143.00 L671.00,215.00 L668.00,219.00 L662.00,246.00 L812.00,246.00 L820.00,213.00 L737.00,212.00 L838.00,137.00 L840.00,127.00 L864.00,109.00 Z M666.00,109.00 L621.00,109.00 L620.00,114.00 L619.00,115.00 L619.00,118.00 L618.00,119.00 L618.00,123.00 L617.00,124.00 L615.00,135.00 L614.00,136.00 L614.00,139.00 L613.00,140.00 L613.00,143.00 L612.00,144.00 L612.00,147.00 L611.00,148.00 L611.00,151.00 L609.00,155.00 L609.00,158.00 L608.00,159.00 L606.00,170.00 L604.00,174.00 L604.00,177.00 L603.00,178.00 L600.00,193.00 L598.00,197.00 L598.00,200.00 L597.00,201.00 L597.00,204.00 L596.00,205.00 L593.00,220.00 L592.00,221.00 L590.00,231.00 L588.00,235.00 L586.00,246.00 L629.00,246.00 L631.00,241.00 L633.00,230.00 L635.00,226.00 L636.00,219.00 L638.00,215.00 L638.00,212.00 L640.00,208.00 L640.00,205.00 L641.00,204.00 L642.00,197.00 L644.00,193.00 L645.00,186.00 L649.00,175.00 L652.00,160.00 L654.00,156.00 L657.00,141.00 L659.00,137.00 L659.00,134.00 L662.00,126.00 L662.00,123.00 L663.00,122.00 L663.00,119.00 L665.00,115.00 L665.00,111.00 Z M444.00,109.00 L409.00,246.00 L540.00,246.00 L545.00,241.00 L561.00,230.00 L564.00,227.00 L573.00,191.00 L573.00,186.00 L563.00,175.00 L577.00,164.00 L587.00,129.00 L587.00,126.00 L576.00,113.00 L572.00,109.00 Z M461.00,212.00 L463.00,208.00 L463.00,205.00 L464.00,204.00 L464.00,201.00 L465.00,200.00 L465.00,197.00 L467.00,192.00 L524.00,192.00 L526.00,195.00 L523.00,210.00 L519.00,213.00 L462.00,213.00 Z M474.00,161.00 L476.00,157.00 L476.00,153.00 L480.00,142.00 L534.00,142.00 L536.00,144.00 L536.00,148.00 L535.00,149.00 L533.00,159.00 L529.00,162.00 L475.00,162.00 Z M395.00,97.00 L387.00,122.00 L366.00,131.00 L365.00,101.00 L274.00,26.00 L119.00,123.00 L179.00,111.00 L69.00,193.00 L17.00,333.00 L95.00,257.00 L150.00,217.00 L116.00,262.00 L165.00,243.00 L195.00,244.00 L173.00,334.00 L254.00,236.00 L215.00,169.00 L276.00,77.00 L268.00,120.00 L276.00,138.00 L304.00,155.00 L304.00,162.00 L295.00,158.00 L294.00,167.00 L310.00,183.00 L307.00,199.00 L311.00,217.00 L305.00,224.00 L309.00,232.00 L299.00,234.00 L290.00,209.00 L266.00,196.00 L281.00,214.00 L293.00,243.00 L323.00,243.00 L339.00,229.00 L349.00,189.00 L357.00,181.00 L361.00,165.00 L388.00,154.00 L399.00,139.00 L401.00,115.00 Z M316.00,222.00 L319.00,226.00 L318.00,228.00 L315.00,224.00 Z" fill="#FFFFFF" fill-rule="evenodd"/>
</svg>
